<svg id="visual" viewBox="0 0 1920 1500" width="1920" height="1500" xmlns="http://www.w3.org/2000/svg" xmlns:xlink="http://www.w3.org/1999/xlink" version="1.1"><path d="M0 1268L53.3 1249.8C106.7 1231.7 213.3 1195.3 320 1178.7C426.7 1162 533.3 1165 640 1177.7C746.7 1190.3 853.3 1212.7 960 1225.7C1066.7 1238.7 1173.3 1242.3 1280 1223C1386.7 1203.7 1493.3 1161.3 1600 1154.2C1706.7 1147 1813.3 1175 1866.7 1189L1920 1203L1920 1501L1866.7 1501C1813.3 1501 1706.7 1501 1600 1501C1493.3 1501 1386.7 1501 1280 1501C1173.3 1501 1066.7 1501 960 1501C853.3 1501 746.7 1501 640 1501C533.3 1501 426.7 1501 320 1501C213.3 1501 106.7 1501 53.3 1501L0 1501Z" fill="#627abe"></path><path d="M0 1196L53.3 1200C106.7 1204 213.3 1212 320 1228.3C426.7 1244.7 533.3 1269.3 640 1279C746.7 1288.7 853.3 1283.3 960 1263.2C1066.7 1243 1173.3 1208 1280 1205.2C1386.7 1202.3 1493.3 1231.7 1600 1254.3C1706.7 1277 1813.3 1293 1866.7 1301L1920 1309L1920 1501L1866.7 1501C1813.3 1501 1706.7 1501 1600 1501C1493.3 1501 1386.7 1501 1280 1501C1173.3 1501 1066.7 1501 960 1501C853.3 1501 746.7 1501 640 1501C533.3 1501 426.7 1501 320 1501C213.3 1501 106.7 1501 53.3 1501L0 1501Z" fill="#385685"></path><path d="M0 1293L53.3 1287C106.7 1281 213.3 1269 320 1278.3C426.7 1287.7 533.3 1318.3 640 1321.2C746.7 1324 853.3 1299 960 1294.5C1066.7 1290 1173.3 1306 1280 1304.2C1386.7 1302.3 1493.3 1282.7 1600 1278.2C1706.7 1273.7 1813.3 1284.3 1866.7 1289.7L1920 1295L1920 1501L1866.7 1501C1813.3 1501 1706.7 1501 1600 1501C1493.3 1501 1386.7 1501 1280 1501C1173.3 1501 1066.7 1501 960 1501C853.3 1501 746.7 1501 640 1501C533.3 1501 426.7 1501 320 1501C213.3 1501 106.7 1501 53.3 1501L0 1501Z" fill="#173350"></path><path d="M0 1352L53.3 1349.2C106.7 1346.3 213.3 1340.7 320 1352C426.7 1363.3 533.3 1391.7 640 1394.3C746.7 1397 853.3 1374 960 1371.8C1066.7 1369.7 1173.3 1388.3 1280 1393C1386.7 1397.7 1493.3 1388.3 1600 1380.7C1706.7 1373 1813.3 1367 1866.7 1364L1920 1361L1920 1501L1866.7 1501C1813.3 1501 1706.7 1501 1600 1501C1493.3 1501 1386.7 1501 1280 1501C1173.3 1501 1066.7 1501 960 1501C853.3 1501 746.7 1501 640 1501C533.3 1501 426.7 1501 320 1501C213.3 1501 106.7 1501 53.3 1501L0 1501Z" fill="#001220"></path></svg>